<svg xmlns="http://www.w3.org/2000/svg" viewBox="0 0 102.97 83.66"><defs><style>.cls-1{fill:#ec7000;}</style></defs><g id="Capa_2" data-name="Capa 2"><g id="Capa_1-2" data-name="Capa 1"><path class="cls-1" d="M99,48.38l-.83.76,3.75-3.44a3.21,3.21,0,0,0,1-2.32A3.25,3.25,0,0,0,102,41a31.06,31.06,0,0,0-33.12-6.68l6.45-11.83h5.11a3.22,3.22,0,1,0,0-6.43H64.35a3.22,3.22,0,0,0,0,6.43H68L59.62,37.89c-1.43-1.35-2.79-2.66-4.13-4C49.87,28.51,44.78,23.6,38.41,21.08l2.7-8.63L55.32,9.68a3.21,3.21,0,0,0-1.23-6.31L38,6.49a3.23,3.23,0,0,0-2.46,2.2L32.18,19.46V3.22A3.22,3.22,0,0,0,29,0H12.87A3.21,3.21,0,0,0,9.69,3.67L12.9,26.2A3.23,3.23,0,0,0,16.09,29H29.21l-3.11,10a22.17,22.17,0,0,0-3.58-.29,22.54,22.54,0,1,0,9.72,2.21l4.26-13.6c4.89,2,9.07,6.09,14.52,11.35,2.29,2.21,4.66,4.5,7.37,6.9a1.71,1.71,0,0,0,.27.2c.25.27.53.54.84.84l2.23,2.08,0,0h0A22.53,22.53,0,1,0,99,48.38ZM38.61,61.14A16.09,16.09,0,1,1,22.52,45.05c.56,0,1.1,0,1.63.08l-4.7,15a3.22,3.22,0,0,0,2.11,4,3.21,3.21,0,0,0,4-2.11l4.7-15A16.09,16.09,0,0,1,38.61,61.14ZM80.44,77.23A16.07,16.07,0,0,1,66.57,53L65,51.54l3.48,3.17,9.73,8.82a3.2,3.2,0,0,0,2.15.82,3.24,3.24,0,0,0,2.18-.84l11.7-10.72a15.92,15.92,0,0,1,2.34,8.35A16.1,16.1,0,0,1,80.44,77.23Z"/></g></g></svg>