<svg xmlns="http://www.w3.org/2000/svg" viewBox="0 0 61.56 61.56"><defs><style>.cls-1{fill:#ec7000;}</style></defs><g id="Capa_2" data-name="Capa 2"><g id="Capa_1-2" data-name="Capa 1"><path class="cls-1" d="M51.3,3.08a7.22,7.22,0,0,1,7.19,7.18v41a7.24,7.24,0,0,1-7.19,7.19h-41A7.22,7.22,0,0,1,3.08,51.3v-41a7.2,7.2,0,0,1,7.18-7.18h41M51.3,0h-41A10.29,10.29,0,0,0,0,10.26v41A10.29,10.29,0,0,0,10.26,61.56h41A10.28,10.28,0,0,0,61.56,51.3v-41A10.29,10.29,0,0,0,51.3,0Z"/><path class="cls-1" d="M49.25,42.92H12.31a3.09,3.09,0,0,1-3.07-3.08V13.67a3.09,3.09,0,0,1,3.07-3.08H49.25a3.09,3.09,0,0,1,3.08,3.08V39.84A3.09,3.09,0,0,1,49.25,42.92Zm0-29.25H12.31V39.84H49.25Z"/><path class="cls-1" d="M9.24,49.25a1.54,1.54,0,0,1,0-3.08H52.33a1.54,1.54,0,0,1,0,3.08Z"/><path class="cls-1" d="M43.61,16.75h2a.51.51,0,0,1,.51.51v2.06a.51.51,0,0,1-.51.51h-2a.51.51,0,0,1-.51-.51V17.26a.51.51,0,0,1,.51-.51"/><path class="cls-1" d="M39,16.75h2a.51.51,0,0,1,.52.51v2.06a.51.51,0,0,1-.52.51H39a.51.51,0,0,1-.51-.51V17.26a.51.51,0,0,1,.51-.51"/><path class="cls-1" d="M39,21.37h2a.51.51,0,0,1,.52.51v2.05a.52.52,0,0,1-.52.52H39a.51.51,0,0,1-.51-.52V21.88a.51.51,0,0,1,.51-.51"/><path class="cls-1" d="M39,26h2a.51.51,0,0,1,.52.51v2.05a.51.51,0,0,1-.52.51H39a.51.51,0,0,1-.51-.51V26.5A.51.51,0,0,1,39,26"/><path class="cls-1" d="M43.61,26h2a.51.51,0,0,1,.51.51v2.05a.51.51,0,0,1-.51.51h-2a.51.51,0,0,1-.51-.51V26.5a.51.51,0,0,1,.51-.51"/><path class="cls-1" d="M43.61,30.6h2a.51.51,0,0,1,.51.52v2.05a.51.51,0,0,1-.51.51h-2a.51.51,0,0,1-.51-.51V31.12a.51.51,0,0,1,.51-.52"/><path class="cls-1" d="M43.61,21.37h2a.51.51,0,0,1,.51.51v2.05a.51.51,0,0,1-.51.52h-2a.51.51,0,0,1-.51-.52V21.88a.51.51,0,0,1,.51-.51"/></g></g></svg>