<svg xmlns="http://www.w3.org/2000/svg" viewBox="0 0 62.12 62.12"><defs><style>.cls-1{fill:#ec7000;}</style></defs><g id="Capa_2" data-name="Capa 2"><g id="Capa_1-2" data-name="Capa 1"><path class="cls-1" d="M51.77,3.11A7.29,7.29,0,0,1,59,10.35V51.77A7.31,7.31,0,0,1,51.77,59H10.35a7.29,7.29,0,0,1-7.24-7.25V10.35a7.27,7.27,0,0,1,7.24-7.24H51.77m0-3.11H10.35A10.38,10.38,0,0,0,0,10.35V51.77A10.38,10.38,0,0,0,10.35,62.12H51.77A10.38,10.38,0,0,0,62.12,51.77V10.35A10.38,10.38,0,0,0,51.77,0Z"/><path class="cls-1" d="M45,35.72V46.59a1.56,1.56,0,0,1-3.11,0V35.72h-3.1V46.59a4.66,4.66,0,1,0,9.31,0V35.72Z"/><path class="cls-1" d="M46.59,7.76c-3.73,0-7.15,2.86-9.13,7.65C35.36,20.49,35,27.9,39.28,32.16a1.57,1.57,0,0,0,1.1.46h6.21a1.55,1.55,0,0,0,1.55-1.56V9.32A1.55,1.55,0,0,0,46.59,7.76ZM45,29.51h-4c-2.67-3.21-2.42-8.82-.73-12.91.93-2.25,2.59-4.62,4.71-5.43Z"/><path class="cls-1" d="M21.74,29.38V46.59a1.55,1.55,0,1,1-3.1,0V29.38a9.88,9.88,0,0,1-3.11-1.06V46.59a4.66,4.66,0,0,0,9.32,0V28.32A9.72,9.72,0,0,1,21.74,29.38Z"/><path class="cls-1" d="M28,10.87v6.22c0,.3,0,.6,0,.9s0,.3-.05.44l0,.26c0,.09,0,.18,0,.27-.05.29-.11.57-.18.85l0,.1a9.47,9.47,0,0,1-2.77,4.65h0a7.35,7.35,0,0,1-1.44,1c-.17.09-.35.18-.52.25a6.47,6.47,0,0,1-2.51.57H20a6.47,6.47,0,0,1-2.51-.57c-.17-.07-.35-.16-.52-.25a7.35,7.35,0,0,1-1.44-1h0a9.47,9.47,0,0,1-2.77-4.65l0-.1c-.07-.28-.13-.56-.18-.85,0-.09,0-.18,0-.27l0-.26c0-.14,0-.29,0-.44s0-.6,0-.9V10.87a1.56,1.56,0,0,1,3.11,0v6.22c0,2.7,1.3,5,3.11,5.85V10.87a1.55,1.55,0,1,1,3.1,0V22.94c1.81-.85,3.11-3.15,3.11-5.85V10.87a1.56,1.56,0,0,1,3.11,0Z"/></g></g></svg>