<svg xmlns="http://www.w3.org/2000/svg" viewBox="0 0 62.8 62.8"><defs><style>.cls-1{fill:#ec7000;}</style></defs><g id="Capa_2" data-name="Capa 2"><g id="Capa_1-2" data-name="Capa 1"><path class="cls-1" d="M52.34,3.14a7.36,7.36,0,0,1,7.32,7.33V52.33a7.34,7.34,0,0,1-7.32,7.33H10.47a7.36,7.36,0,0,1-7.33-7.33V10.47a7.38,7.38,0,0,1,7.33-7.33H52.34m0-3.14H10.47A10.5,10.5,0,0,0,0,10.47V52.33A10.5,10.5,0,0,0,10.47,62.8H52.34A10.5,10.5,0,0,0,62.8,52.33V10.47A10.5,10.5,0,0,0,52.34,0Z"/><path class="cls-1" d="M48.67,26.69H36.11V14.13a4.71,4.71,0,0,0-9.42,0V26.69H14.13a4.71,4.71,0,0,0,0,9.42H26.69V48.67a4.71,4.71,0,0,0,9.42,0V36.11H48.67a4.71,4.71,0,1,0,0-9.42ZM14.13,33a1.57,1.57,0,0,1,0-3.14H26.69V33ZM33,26.69v22a1.57,1.57,0,0,1-3.14,0V14.13a1.57,1.57,0,0,1,3.14,0ZM48.67,33H36.11V29.83H48.67a1.57,1.57,0,0,1,0,3.14Z"/></g></g></svg>