<svg xmlns="http://www.w3.org/2000/svg" viewBox="0 0 52.08 61.54"><defs><style>.cls-1{fill:#ec7000;}</style></defs><g id="Capa_2" data-name="Capa 2"><g id="Capa_1-2" data-name="Capa 1"><path class="cls-1" d="M52.08,40.24V56.81a4.74,4.74,0,0,1-9.47,0V40.24Z"/><path class="cls-1" d="M52.08,0V35.5H42.61C33.14,23.67,40.24,0,52.08,0Z"/><path class="cls-1" d="M11.83,30.78A14.87,14.87,0,0,0,16.57,30V56.81a4.74,4.74,0,0,1-9.47,0V30A14.9,14.9,0,0,0,11.83,30.78Z"/><path class="cls-1" d="M23.67,2.37v9.46a17.28,17.28,0,0,1-.12,2.06l-.09.67c0,.14-.05.28-.08.42s-.05.25-.07.38l0,.11a4.37,4.37,0,0,1-.12.49c0,.11-.05.22-.08.33L23,16.7a0,0,0,0,1,0,0c-.07.21-.14.42-.2.63a13.73,13.73,0,0,1-5.27,7c-.3.19-.6.37-.91.53l-.21.1a3.88,3.88,0,0,1-.46.22l-.13.06c-.29.12-.57.23-.86.32a10.12,10.12,0,0,1-2.83.48h-.49a10,10,0,0,1-2.86-.49c-.27-.09-.52-.18-.78-.29l-.18-.08A3.88,3.88,0,0,1,7.31,25l-.21-.1h0a3.84,3.84,0,0,1-.39-.22,5.33,5.33,0,0,1-.51-.31,14.28,14.28,0,0,1-6-9.63c0-.23-.08-.46-.11-.69s0-.33,0-.5A15.44,15.44,0,0,1,0,11.83V2.37a2.37,2.37,0,1,1,4.73,0v9.46c0,4.12,2,7.63,4.74,8.93V2.37a2.37,2.37,0,1,1,4.74,0V20.76c2.75-1.3,4.73-4.81,4.73-8.93V2.37a2.37,2.37,0,0,1,4.73-.12Z"/></g></g></svg>