<svg xmlns="http://www.w3.org/2000/svg" viewBox="0 0 61.54 61.54"><defs><style>.cls-1{fill:#ec7000;}</style></defs><g id="Capa_2" data-name="Capa 2"><g id="Capa_1-2" data-name="Capa 1"><path class="cls-1" d="M46.16,52.31H15.39a1.54,1.54,0,0,1-1.54-1.54v-40a1.54,1.54,0,0,1,1.54-1.54H46.16a1.53,1.53,0,0,1,1.53,1.54v40A1.53,1.53,0,0,1,46.16,52.31ZM16.92,49.23h27.7V12.31H16.92Z"/><path class="cls-1" d="M40,46.16H30.77a1.54,1.54,0,0,1,0-3.08H40a1.54,1.54,0,0,1,0,3.08Z"/><path class="cls-1" d="M40,40H21.54a1.54,1.54,0,0,1,0-3.08H40A1.54,1.54,0,0,1,40,40Z"/><path class="cls-1" d="M40,33.85H21.54a1.54,1.54,0,1,1,0-3.08H40a1.54,1.54,0,0,1,0,3.08Z"/><path class="cls-1" d="M51.28,3.08a7.2,7.2,0,0,1,7.18,7.18v41a7.2,7.2,0,0,1-7.18,7.18h-41a7.2,7.2,0,0,1-7.18-7.18v-41a7.2,7.2,0,0,1,7.18-7.18h41m0-3.08h-41A10.29,10.29,0,0,0,0,10.26v41A10.29,10.29,0,0,0,10.26,61.54h41A10.28,10.28,0,0,0,61.54,51.28v-41A10.29,10.29,0,0,0,51.28,0Z"/></g></g></svg>