<svg xmlns="http://www.w3.org/2000/svg" viewBox="0 0 62.75 62.75"><defs><style>.cls-1{fill:#ec7000;}</style></defs><g id="Capa_2" data-name="Capa 2"><g id="Capa_1-2" data-name="Capa 1"><path class="cls-1" d="M52.29,3.14a7.34,7.34,0,0,1,7.32,7.32V52.29a7.34,7.34,0,0,1-7.32,7.32H10.46a7.34,7.34,0,0,1-7.32-7.32V10.46a7.34,7.34,0,0,1,7.32-7.32H52.29m0-3.14H10.46A10.49,10.49,0,0,0,0,10.46V52.29A10.49,10.49,0,0,0,10.46,62.75H52.29A10.49,10.49,0,0,0,62.75,52.29V10.46A10.49,10.49,0,0,0,52.29,0Z"/><path class="cls-1" d="M43.93,47.06H18.83a1.57,1.57,0,0,1-1.57-1.57V21.9H14.12a1.57,1.57,0,0,1-1.57-1.57V17.19c0-5.57,2.27-7.84,7.84-7.84h6.28a1.57,1.57,0,1,1,0,3.13H20.39c-3.82,0-4.7.88-4.7,4.71v1.57h3.14a1.56,1.56,0,0,1,1.56,1.57V43.92h22V20.33a1.57,1.57,0,0,1,1.57-1.57h3.13V17.19c0-3.83-.88-4.71-4.7-4.71H36.08a1.57,1.57,0,1,1,0-3.13h6.28c5.57,0,7.84,2.27,7.84,7.84v3.13a1.57,1.57,0,0,1-1.57,1.58H45.49V45.49A1.56,1.56,0,0,1,43.93,47.06Z"/><path class="cls-1" d="M43.92,53.34H18.83a1.57,1.57,0,1,1,0-3.14H43.92a1.57,1.57,0,0,1,0,3.14Z"/></g></g></svg>