<svg xmlns="http://www.w3.org/2000/svg" viewBox="0 0 61.39 61.39"><defs><style>.cls-1{fill:#ec7000;}</style></defs><g id="Capa_2" data-name="Capa 2"><g id="Capa_1-2" data-name="Capa 1"><path class="cls-1" d="M51.16,3.07a7.2,7.2,0,0,1,7.16,7.16V51.16a7.2,7.2,0,0,1-7.16,7.16H10.23a7.2,7.2,0,0,1-7.16-7.16V10.23a7.2,7.2,0,0,1,7.16-7.16H51.16m0-3.07H10.23A10.26,10.26,0,0,0,0,10.23V51.16A10.26,10.26,0,0,0,10.23,61.39H51.16A10.26,10.26,0,0,0,61.39,51.16V10.23A10.26,10.26,0,0,0,51.16,0Z"/><path class="cls-1" d="M46,39.9H18.33a1.54,1.54,0,0,1-1.51-1.23L12.47,16.88H9.12a1.54,1.54,0,1,1,0-3.07h4.6a1.54,1.54,0,0,1,1.51,1.24l.67,3.37H49a1.54,1.54,0,0,1,1.17.54,1.52,1.52,0,0,1,.35,1.24L47.47,38.62A1.54,1.54,0,0,1,46,39.9ZM19.59,36.83H44.65l2.56-15.34H16.52Z"/><path class="cls-1" d="M22.93,52.18a4.61,4.61,0,1,1,4.61-4.6A4.6,4.6,0,0,1,22.93,52.18Zm0-6.14a1.54,1.54,0,1,0,1.54,1.54A1.54,1.54,0,0,0,22.93,46Z"/><path class="cls-1" d="M39.81,52.18a4.61,4.61,0,1,1,4.61-4.6A4.61,4.61,0,0,1,39.81,52.18Zm0-6.14a1.54,1.54,0,1,0,1.54,1.54A1.54,1.54,0,0,0,39.81,46Z"/></g></g></svg>