<svg xmlns="http://www.w3.org/2000/svg" viewBox="0 0 78.35 72.38"><defs><style>.cls-1{fill:#ec7000;}</style></defs><g id="Capa_2" data-name="Capa 2"><g id="Capa_1-2" data-name="Capa 1"><path class="cls-1" d="M78.35,12.06l-6,36.19H18L10.93,12.71l-.13-.59v0L9.59,6H3A3,3,0,1,1,3,0h9.05A3,3,0,0,1,15,2.42l1.82,9.1a3.31,3.31,0,0,1,.06.54Z"/><path class="cls-1" d="M33.11,66.35a6,6,0,1,1-6-6A6,6,0,0,1,33.11,66.35Z"/><path class="cls-1" d="M66.29,66.35a6,6,0,1,1-6-6A6,6,0,0,1,66.29,66.35Z"/></g></g></svg>