<svg xmlns="http://www.w3.org/2000/svg" viewBox="0 0 85.54 85.54"><defs><style>.cls-1{fill:#fff;}.cls-2{font-size:44.87px;}.cls-2,.cls-3,.cls-6{fill:#ec7000;}.cls-2,.cls-3{font-family:ItauDisplay-XBold, Itau Display;font-weight:700;}.cls-3{font-size:15.65px;letter-spacing:-0.02em;}.cls-4{fill:#6f6f6f;}.cls-5{fill:#b7b9ba;}</style></defs><g id="Capa_2" data-name="Capa 2"><g id="Capa_1-2" data-name="Capa 1"><path class="cls-1" d="M42.77,5A37.74,37.74,0,1,0,80.51,42.77,37.78,37.78,0,0,0,42.77,5Z"/><text class="cls-2" transform="translate(17.58 56.17)">15</text><text class="cls-3" transform="translate(58.51 55.72)">%</text><path class="cls-4" d="M42.77,85.54A42.77,42.77,0,1,1,85.54,42.77,42.82,42.82,0,0,1,42.77,85.54ZM42.77,5A37.74,37.74,0,1,0,80.51,42.77,37.78,37.78,0,0,0,42.77,5Z"/><path class="cls-5" d="M44.46,5.08a37.54,37.54,0,0,1,21.77,8.16l2.92-4.09A42.55,42.55,0,0,0,44.46,0Z"/><path class="cls-6" d="M44.44,5.17A37.8,37.8,0,0,1,56.07,7.54L57.64,2.7A42.84,42.84,0,0,0,44.44.09Z"/><path class="cls-6" d="M56.12,7.57a37.62,37.62,0,0,1,10.32,5.85l3-4.12A43,43,0,0,0,57.69,2.74Z"/><path class="cls-6" d="M66.48,13.47a37.64,37.64,0,0,1,8,8.75l4.12-3a43.1,43.1,0,0,0-9.14-9.88Z"/></g></g></svg>