<svg xmlns="http://www.w3.org/2000/svg" viewBox="0 0 85.32 85.31"><defs><style>.cls-1{fill:#fff;}.cls-2{fill:#6f6f6f;}.cls-3,.cls-4,.cls-6{fill:#ec7000;}.cls-4{font-size:44.75px;letter-spacing:0.01em;}.cls-4,.cls-6{font-family:ItauDisplay-XBold, Itau Display;font-weight:700;}.cls-5{letter-spacing:0em;}.cls-6{font-size:15.61px;letter-spacing:-0.02em;}</style></defs><g id="Capa_2" data-name="Capa 2"><g id="Capa_1-2" data-name="Capa 1"><path class="cls-1" d="M43.08,5.24A37.63,37.63,0,1,0,80.54,43.05,37.67,37.67,0,0,0,43.08,5.24Z"/><path class="cls-2" d="M42.65,85.31A42.66,42.66,0,1,1,85.31,42.65,42.7,42.7,0,0,1,42.65,85.31ZM42.65,5A37.64,37.64,0,1,0,80.29,42.65,37.67,37.67,0,0,0,42.65,5Z"/><path class="cls-3" d="M44.38,5.06A37.42,37.42,0,0,1,55.87,7.4l1.55-4.78A42.39,42.39,0,0,0,44.38,0Z"/><path class="cls-3" d="M55.92,7.44a37.06,37.06,0,0,1,10.19,5.77l3-4.07a42.64,42.64,0,0,0-11.6-6.48Z"/><path class="cls-3" d="M66.15,13.26a37.34,37.34,0,0,1,7.91,8.64L78.13,19a42,42,0,0,0-9-9.75Z"/><path class="cls-3" d="M74.08,21.91a37.54,37.54,0,0,1,4.86,10.67L83.72,31A42.29,42.29,0,0,0,78.14,19Z"/><path class="cls-3" d="M78.94,32.64a37.49,37.49,0,0,1,1.32,11.64h5a42.42,42.42,0,0,0-1.58-13.19Z"/><path class="cls-3" d="M80.28,44.27a37.13,37.13,0,0,1-2.34,11.49l4.78,1.55a42.1,42.1,0,0,0,2.58-13Z"/><path class="cls-3" d="M77.91,55.81A37.32,37.32,0,0,1,72.14,66l4.06,3a42.38,42.38,0,0,0,6.48-11.6Z"/><text class="cls-4" transform="translate(15.13 56.02)">3<tspan class="cls-5" x="22.5" y="0">5</tspan></text><text class="cls-6" transform="translate(62.77 47.15)">%</text></g></g></svg>