<svg xmlns="http://www.w3.org/2000/svg" viewBox="0 0 85.54 85.54"><defs><style>.cls-1{fill:#fff;}.cls-2{font-size:44.87px;}.cls-2,.cls-3,.cls-5{fill:#ec7000;}.cls-2,.cls-3{font-family:ItauDisplay-XBold, Itau Display;font-weight:700;}.cls-3{font-size:15.65px;letter-spacing:-0.02em;}.cls-4{fill:#6f6f6f;}</style></defs><g id="Capa_2" data-name="Capa 2"><g id="Capa_1-2" data-name="Capa 1"><path class="cls-1" d="M42.77,5A37.74,37.74,0,1,0,80.51,42.77,37.78,37.78,0,0,0,42.77,5Z"/><text class="cls-2" transform="translate(14.42 55.14)">30</text><text class="cls-3" transform="translate(61.17 54.69)">%</text><path class="cls-4" d="M42.77,85.54A42.77,42.77,0,1,1,85.54,42.77,42.82,42.82,0,0,1,42.77,85.54ZM42.77,5A37.74,37.74,0,1,0,80.51,42.77,37.78,37.78,0,0,0,42.77,5Z"/><path class="cls-5" d="M44.46,5.08a37.57,37.57,0,0,1,21.77,8.16l2.92-4.09A42.55,42.55,0,0,0,44.46,0Z"/><path class="cls-5" d="M66.29,13.27A37.49,37.49,0,0,1,79.1,32.67l4.78-1.59A42.48,42.48,0,0,0,69.25,9.2Z"/><path class="cls-5" d="M79.14,32.73A37.58,37.58,0,0,1,78.1,56l4.8,1.51a42.52,42.52,0,0,0,1-26.3Z"/></g></g></svg>