<svg xmlns="http://www.w3.org/2000/svg" viewBox="0 0 85.48 85.47"><defs><style>.cls-1{fill:#fff;}.cls-2{fill:none;}.cls-3{fill:#6f6f6f;}.cls-4{font-size:44.83px;}.cls-4,.cls-5,.cls-6{fill:#ec7000;}.cls-4,.cls-6{font-family:ItauDisplay-XBold, Itau Display;font-weight:700;}.cls-6{font-size:15.64px;letter-spacing:-0.02em;}.cls-7{fill:#ce6f1a;}</style></defs><g id="Capa_2" data-name="Capa 2"><g id="Capa_1-2" data-name="Capa 1"><path class="cls-1" d="M43.36,5.22A37.71,37.71,0,1,0,81.07,42.93,37.75,37.75,0,0,0,43.36,5.22Z"/><circle class="cls-2" cx="42.74" cy="42.74" r="37.71" transform="translate(-0.53 84.94) rotate(-89.28)"/><path class="cls-3" d="M42.74,85.47A42.74,42.74,0,1,1,85.48,42.74,42.78,42.78,0,0,1,42.74,85.47ZM42.74,5A37.71,37.71,0,1,0,80.45,42.74,37.74,37.74,0,0,0,42.74,5Z"/><text class="cls-4" transform="translate(14.47 57.37)">25</text><path class="cls-5" d="M44.43,5.06a37.52,37.52,0,0,1,21.76,8.17l2.92-4.1A42.5,42.5,0,0,0,44.43,0Z"/><path class="cls-5" d="M66.25,13.25a37.45,37.45,0,0,1,12.8,19.39l4.77-1.59A42.52,42.52,0,0,0,69.21,9.18Z"/><text class="cls-6" transform="translate(59.79 56.47)">%</text><path class="cls-7" d="M85.47,42.88a42.47,42.47,0,0,0-1.6-11.74L79.09,32.7a37.62,37.62,0,0,1,1.36,10.18Z"/></g></g></svg>