<svg xmlns="http://www.w3.org/2000/svg" viewBox="0 0 60.57 48.63"><defs><style>.cls-1{fill:#ff7276;}</style></defs><g id="Capa_2" data-name="Capa 2"><g id="Capa_1-2" data-name="Capa 1"><path class="cls-1" d="M6.8,15.84c-.12.45-.24.89-.34,1.3s-.25,1-.36,1.42-.18.76-.22,1a1,1,0,0,1-.82.8,2.54,2.54,0,0,1-1.24-.1,2.9,2.9,0,0,1-1.16-.72,1.78,1.78,0,0,1-.54-1.32,10.64,10.64,0,0,1,.33-2.07c.22-.93.53-2,.92-3.3s.87-2.62,1.42-4.09c.47-1.25,1-2.52,1.57-3.77a1.32,1.32,0,0,1,1-.74A7.73,7.73,0,0,1,10,4.34a.73.73,0,0,1,.5,1C10,6.42,9.59,7.49,9.2,8.53c-.32.84-.63,1.68-.92,2.49a.1.1,0,0,0,.13.12,9.1,9.1,0,0,0,1.14-.63A8.45,8.45,0,0,0,11.2,9.12a7.07,7.07,0,0,0,1.18-1.78,5,5,0,0,0,.44-2.08A2.59,2.59,0,0,0,12,3.18a3.36,3.36,0,0,0-2.19-.65,5.28,5.28,0,0,0-2.69.69A8,8,0,0,0,5.06,5,8.71,8.71,0,0,0,3.7,7.13a5.15,5.15,0,0,0-.48,2,.8.8,0,0,1-.58.8,1.65,1.65,0,0,1-1.07-.05,2.38,2.38,0,0,1-1-.78A2.52,2.52,0,0,1,.13,7.49a4.41,4.41,0,0,1,.66-2A8.44,8.44,0,0,1,2.67,3.19,11.21,11.21,0,0,1,5.75,1.33,10.85,10.85,0,0,1,10,.55a11.41,11.41,0,0,1,2.67.32A7.89,7.89,0,0,1,15,1.81a5.46,5.46,0,0,1,1.72,1.58,3.76,3.76,0,0,1,.67,2.22,5.46,5.46,0,0,1-.59,2.51,6.88,6.88,0,0,1-1.58,2.05,9.71,9.71,0,0,1-2.31,1.58,14.44,14.44,0,0,1-2.29.93.1.1,0,0,0-.07.1q0,.6.09,1.17c.05.43.11.86.18,1.26s.16.78.26,1.15.16.55.25.81l.18.48a7.89,7.89,0,0,0,.41.88,6.8,6.8,0,0,0,.46.75,6.51,6.51,0,0,0,.51.64,5.38,5.38,0,0,0,.55.52,4.57,4.57,0,0,0,.57.41q.3.16.6.3a5,5,0,0,0,.63.19,3.51,3.51,0,0,0,.65.09,3.88,3.88,0,0,0,.68,0,5.81,5.81,0,0,0,.71-.11,5.69,5.69,0,0,0,.74-.23,6.21,6.21,0,0,0,.75-.34,2.69,2.69,0,0,0,.29-.16.72.72,0,0,1,.93.2.71.71,0,0,1-.11.94l-.4.34c-.32.27-.65.51-1,.73s-.61.4-.91.57l-.47.26a9.41,9.41,0,0,1-.93.41,8.72,8.72,0,0,1-.92.28,5.67,5.67,0,0,1-.9.16l-.62,0h-.25a7.6,7.6,0,0,1-.85-.1l-.41-.1-.4-.13a5.58,5.58,0,0,1-.75-.34,5.92,5.92,0,0,1-.7-.45c-.18-.14-.35-.29-.52-.45a7.17,7.17,0,0,1-.59-.63,7.63,7.63,0,0,1-.52-.71,6.94,6.94,0,0,1-.46-.8,7,7,0,0,1-.4-.87,8.85,8.85,0,0,1-.34-1c-.1-.32-.2-.66-.28-1s-.15-.71-.21-1.08S7,16.2,7,15.86A.1.1,0,0,0,6.8,15.84Z"/><path class="cls-1" d="M60.57,2.68A2.68,2.68,0,1,1,57.89,0,2.68,2.68,0,0,1,60.57,2.68Z"/><path class="cls-1" d="M60,13.47a.77.77,0,0,0-.64-.33.72.72,0,0,0-.6.31l-.58.82a12.33,12.33,0,0,1-.8,1,8.11,8.11,0,0,1-.82.77.92.92,0,0,1-.53.27c-.07,0-.2,0-.23-.34a4.57,4.57,0,0,1,.16-1.36,15,15,0,0,1,.58-1.87c.26-.69.52-1.34.77-1.95s.49-1.15.69-1.6.33-.74.37-.86a1,1,0,0,0-.17-1,2,2,0,0,0-1-.61,2.67,2.67,0,0,0-1.29,0,1.77,1.77,0,0,0-1.14.83,20,20,0,0,0-.93,1.84c-.38.83-.74,1.75-1.08,2.73-.21.6-.4,1.2-.58,1.81a5.14,5.14,0,0,1-1.69,2.59,10.56,10.56,0,0,1-.93.68l-.42.25a0,0,0,0,1-.06-.07c.24-.32.49-.67.72-1.05a14.68,14.68,0,0,0,1.33-2.75,13.34,13.34,0,0,0,.77-3,6.75,6.75,0,0,0-.11-2.34,3,3,0,0,0-.89-1.57A2.39,2.39,0,0,0,49.28,6a3.65,3.65,0,0,0-2,.59,7.53,7.53,0,0,0-1.14.88,0,0,0,0,1-.07,0,1.45,1.45,0,0,0-.31-.35,2.32,2.32,0,0,0-1-.48,2.36,2.36,0,0,0-1.21.08,1.54,1.54,0,0,0-1,.87c-.39.83-.79,1.8-1.21,2.88s-.82,2.21-1.21,3.36c0,.12-.09.25-.13.38a5.09,5.09,0,0,1-1.75,2.46c-.22.17-.44.33-.67.48l-.43.25s-.09,0-.06-.07c.25-.32.49-.67.73-1.05a14.68,14.68,0,0,0,1.32-2.75,13.34,13.34,0,0,0,.77-3,6.77,6.77,0,0,0-.1-2.34,3,3,0,0,0-.9-1.57A2.35,2.35,0,0,0,37.3,6a3.65,3.65,0,0,0-2,.59,6.65,6.65,0,0,0-1.14.88s0,0-.07,0a1.45,1.45,0,0,0-.31-.35,2.41,2.41,0,0,0-1-.48,2.38,2.38,0,0,0-1.21.08,1.59,1.59,0,0,0-.95.87c-.38.83-.79,1.8-1.21,2.88s-.77,2.07-1.13,3.13a4.91,4.91,0,0,1-1.29,2.05c-.16.15-.31.29-.46.41a.94.94,0,0,1-.54.27c-.06,0-.19,0-.22-.34a4.26,4.26,0,0,1,.16-1.36,15,15,0,0,1,.58-1.87c.26-.68.51-1.34.77-1.95s.49-1.16.69-1.6l.37-.86a1,1,0,0,0-.17-1,2,2,0,0,0-1-.61,2.76,2.76,0,0,0-1.28,0,1.76,1.76,0,0,0-1.12.83c-.06.09-.11.19-.17.3a0,0,0,0,1-.09,0A2.85,2.85,0,0,0,24.18,7a2.1,2.1,0,0,0-.76-.78A2.4,2.4,0,0,0,22.16,6,5.35,5.35,0,0,0,18.6,7.58a11.38,11.38,0,0,0-2.87,5,12.61,12.61,0,0,0-.6,3A6.5,6.5,0,0,0,15.35,18a3.18,3.18,0,0,0,1,1.55,2.5,2.5,0,0,0,1.64.57,3.58,3.58,0,0,0,1.31-.24,4.93,4.93,0,0,0,1.09-.58,5.1,5.1,0,0,0,.7-.61.28.28,0,0,1,.48.12,2.29,2.29,0,0,0,.3.63,1.63,1.63,0,0,0,1.45.68,3.62,3.62,0,0,0,2.18-.81,9.46,9.46,0,0,0,1-.82.1.1,0,0,1,.16.1c-.18.62-.35,1.19-.5,1.73-.25.9-.46,1.68-.61,2.31a6.59,6.59,0,0,0-.24,1.18,2,2,0,0,0,.48,1.32,2.64,2.64,0,0,0,1.06.72,2.12,2.12,0,0,0,.76.14,1.72,1.72,0,0,0,.39,0,.93.93,0,0,0,.75-.79h0A11.37,11.37,0,0,1,28.94,24c.12-.49.26-1.05.43-1.66L30,20.23q.15-.54.33-1.14a.09.09,0,0,1,.17,0l.18.27a2,2,0,0,0,1.71.73h.47A8.78,8.78,0,0,0,36,19.5a12.91,12.91,0,0,0,2.53-1.34c.08-.05.18,0,.15.1-.22.72-.41,1.39-.59,2-.25.91-.46,1.69-.61,2.31a5.91,5.91,0,0,0-.23,1.18,1.92,1.92,0,0,0,.48,1.32,2.57,2.57,0,0,0,1.06.72,2.07,2.07,0,0,0,.75.14,1.61,1.61,0,0,0,.39,0,.92.92,0,0,0,.75-.79h0c0-.28.12-.67.23-1.14s.27-1.05.44-1.66.35-1.29.57-2.07q.16-.54.33-1.14a.1.1,0,0,1,.18,0c.05.09.11.18.17.27a2,2,0,0,0,1.72.73h.46A8.74,8.74,0,0,0,48,19.5a12.44,12.44,0,0,0,2.92-1.62l.43-.33a.09.09,0,0,1,.15.08v.11a2.93,2.93,0,0,0,.43,1.65,1.65,1.65,0,0,0,1.45.68,3.7,3.7,0,0,0,2.2-.81,12.14,12.14,0,0,0,1.95-1.79,21.15,21.15,0,0,0,1.55-2c.44-.66.73-1.1.9-1.37A.57.57,0,0,0,60,13.47ZM22.94,10A13.68,13.68,0,0,1,22,13.48c-.25.64-.51,1.24-.79,1.79a9.57,9.57,0,0,1-.81,1.36,3.76,3.76,0,0,1-.74.78.47.47,0,0,1-.29.14h0s-.13-.08-.18-.41a4.19,4.19,0,0,1,0-1.14,11.64,11.64,0,0,1,.28-1.61,15,15,0,0,1,.61-1.87c.25-.65.52-1.25.79-1.79a9.91,9.91,0,0,1,.82-1.37,3.67,3.67,0,0,1,.73-.8.58.58,0,0,1,.29-.14h0s.14.09.2.42A3.87,3.87,0,0,1,22.94,10Zm13,0a13.69,13.69,0,0,1-.39,1.61,18.61,18.61,0,0,1-.68,1.87c-.3.64-.6,1.25-.91,1.79a10.33,10.33,0,0,1-.9,1.38,4,4,0,0,1-.78.8.53.53,0,0,1-.3.14h-.05s-.12-.08-.17-.4a3.69,3.69,0,0,1,.07-1.15,13.47,13.47,0,0,1,.39-1.63c.18-.59.41-1.22.68-1.87a15.71,15.71,0,0,1,.89-1.79,11.82,11.82,0,0,1,.91-1.36,4.48,4.48,0,0,1,.78-.79.58.58,0,0,1,.31-.14h0s.13.08.18.4A3.93,3.93,0,0,1,35.9,10Zm12,0a16.32,16.32,0,0,1-.4,1.61,18.61,18.61,0,0,1-.68,1.87c-.29.64-.6,1.25-.9,1.79a12.76,12.76,0,0,1-.9,1.38,4.26,4.26,0,0,1-.78.8.58.58,0,0,1-.31.14h0s-.13-.08-.17-.4a4,4,0,0,1,.06-1.15,13.66,13.66,0,0,1,.4-1.63,15.92,15.92,0,0,1,.68-1.87,16.58,16.58,0,0,1,.88-1.79,12.71,12.71,0,0,1,.92-1.36,4.16,4.16,0,0,1,.78-.79.55.55,0,0,1,.31-.14h0s.13.08.17.4A3.87,3.87,0,0,1,47.89,10Z"/><path class="cls-1" d="M59.78,35.63c-3.18,2.79-6,3-9.4.47-1.56-1.15-3-2.52-4.53-3.66A17.89,17.89,0,0,0,42,30.14a7.63,7.63,0,0,0-7,.7,46.37,46.37,0,0,0-4.21,3.09.63.63,0,0,1-1,0,45,45,0,0,0-4.21-3.09,7.63,7.63,0,0,0-7-.7,17.89,17.89,0,0,0-3.87,2.3c-1.57,1.14-3,2.51-4.52,3.66C6.8,38.6,4,38.42.79,35.63L0,34.94a17.69,17.69,0,0,0,3,7.12,15,15,0,0,0,7.63,5.75c7.41,2.51,16.78-1,19.65-7.58,2.87,6.59,12.23,10.09,19.65,7.58a15,15,0,0,0,7.62-5.75,17.55,17.55,0,0,0,3-7.12Z"/></g></g></svg>