<svg xmlns="http://www.w3.org/2000/svg" viewBox="0 0 134.14 28.35"><defs><style>.cls-1,.cls-2{fill:#fff;}.cls-2{font-size:21.04px;font-family:ItauDisplay-Light, Itau Display;font-weight:300;letter-spacing:0.06em;}.cls-3{letter-spacing:0.06em;}.cls-4{letter-spacing:0.06em;}</style></defs><g id="Capa_2" data-name="Capa 2"><g id="Capa_1-2" data-name="Capa 1"><path class="cls-1" d="M59.41,28.35a2,2,0,0,1-1-.28,2,2,0,0,1-.72-.81l0,.95h-.54V20.26h.62v3.43a1.92,1.92,0,0,1,.73-.79,2,2,0,0,1,2.23.07,2.32,2.32,0,0,1,.77,1,3.76,3.76,0,0,1,.27,1.46,3.3,3.3,0,0,1-.63,2.12A2,2,0,0,1,59.41,28.35Zm-.06-.55a1.47,1.47,0,0,0,1.25-.63,2.82,2.82,0,0,0,.47-1.71,2.78,2.78,0,0,0-.47-1.69,1.48,1.48,0,0,0-1.25-.62,1.42,1.42,0,0,0-1.22.64,2.81,2.81,0,0,0-.46,1.66,3.37,3.37,0,0,0,.22,1.25,1.93,1.93,0,0,0,.6.82A1.39,1.39,0,0,0,59.35,27.8Z"/><path class="cls-1" d="M65.64,28.35a2.25,2.25,0,0,1-1.81-.78,3.13,3.13,0,0,1-.67-2.12,3.78,3.78,0,0,1,.29-1.52,2.22,2.22,0,0,1,.82-1,2.15,2.15,0,0,1,1.21-.35,1.86,1.86,0,0,1,1.54.71,3.07,3.07,0,0,1,.56,1.94v.38H63.77a2.52,2.52,0,0,0,.55,1.58,1.74,1.74,0,0,0,1.37.57,2.61,2.61,0,0,0,1.57-.49v.59A2.83,2.83,0,0,1,65.64,28.35Zm-.19-5.2a1.43,1.43,0,0,0-1.17.51,2.44,2.44,0,0,0-.5,1.45H67a2.33,2.33,0,0,0-.42-1.44A1.34,1.34,0,0,0,65.45,23.15Z"/><path class="cls-1" d="M69.36,22.74h.55l0,.83a1.82,1.82,0,0,1,.72-.71,2,2,0,0,1,1-.26,1.73,1.73,0,0,1,1.38.6,2.36,2.36,0,0,1,.51,1.6v3.41h-.62V24.89a2,2,0,0,0-.37-1.28,1.25,1.25,0,0,0-1-.45,1.42,1.42,0,0,0-1.12.48A1.77,1.77,0,0,0,70,24.88v3.33h-.62Z"/><path class="cls-1" d="M77.79,28.35A2.24,2.24,0,0,1,76,27.57a3.13,3.13,0,0,1-.67-2.12,3.78,3.78,0,0,1,.29-1.52,2.22,2.22,0,0,1,.82-1,2.15,2.15,0,0,1,1.21-.35,1.88,1.88,0,0,1,1.54.71,3.07,3.07,0,0,1,.56,1.94v.38H75.92a2.52,2.52,0,0,0,.55,1.58,1.74,1.74,0,0,0,1.37.57,2.61,2.61,0,0,0,1.57-.49v.59A2.83,2.83,0,0,1,77.79,28.35Zm-.2-5.2a1.46,1.46,0,0,0-1.17.51,2.5,2.5,0,0,0-.49,1.45h3.21a2.27,2.27,0,0,0-.43-1.44A1.33,1.33,0,0,0,77.59,23.15Z"/><path class="cls-1" d="M81.77,23.26h-.9v-.52h.9V22a2,2,0,0,1,.41-1.36,1.54,1.54,0,0,1,1.2-.47,1.64,1.64,0,0,1,.69.14v.54a1.51,1.51,0,0,0-.68-.15c-.67,0-1,.41-1,1.23v.86h1.45v.52H82.39v4.95h-.62Z"/><path class="cls-1" d="M85.87,21.5a.45.45,0,0,1-.33-.14.44.44,0,0,1-.13-.32.44.44,0,0,1,.46-.46.44.44,0,0,1,.32.13.44.44,0,0,1,.13.33.44.44,0,0,1-.13.32A.45.45,0,0,1,85.87,21.5Zm-.31,1.24h.62v5.47h-.62Z"/><path class="cls-1" d="M90.45,28.35a2.27,2.27,0,0,1-1.81-.78A3,3,0,0,1,88,25.49,3.45,3.45,0,0,1,88.29,24a2.39,2.39,0,0,1,.88-1,2.59,2.59,0,0,1,2.6,0v.59a2,2,0,0,0-1.28-.36,1.68,1.68,0,0,0-1.38.62,2.58,2.58,0,0,0-.51,1.69,2.58,2.58,0,0,0,.51,1.67,1.7,1.7,0,0,0,1.39.63,2.4,2.4,0,0,0,1.37-.4V28A2.74,2.74,0,0,1,90.45,28.35Z"/><path class="cls-1" d="M94,21.5a.43.43,0,0,1-.32-.14.45.45,0,0,1-.14-.32.45.45,0,0,1,.14-.33.42.42,0,0,1,.32-.13.44.44,0,0,1,.46.46.44.44,0,0,1-.13.32A.45.45,0,0,1,94,21.5Zm-.31,1.24h.62v5.47h-.62Z"/><path class="cls-1" d="M98.54,28.35A2.23,2.23,0,0,1,97.27,28a2.34,2.34,0,0,1-.84-1,3.9,3.9,0,0,1,0-3,2.42,2.42,0,0,1,.86-1,2.18,2.18,0,0,1,1.24-.36,2.26,2.26,0,0,1,1.27.37,2.34,2.34,0,0,1,.84,1,3.6,3.6,0,0,1,.29,1.47,3.45,3.45,0,0,1-.32,1.53,2.36,2.36,0,0,1-.85,1A2.3,2.3,0,0,1,98.54,28.35Zm0-.56a1.54,1.54,0,0,0,1.29-.63,2.7,2.7,0,0,0,.48-1.68,2.64,2.64,0,0,0-.49-1.68,1.63,1.63,0,0,0-2.58,0,2.64,2.64,0,0,0-.49,1.69,2.73,2.73,0,0,0,.49,1.68A1.56,1.56,0,0,0,98.55,27.79Z"/><path class="cls-1" d="M104,28.35a2.92,2.92,0,0,1-1.56-.4v-.58a3,3,0,0,0,1.52.44,1.6,1.6,0,0,0,1-.28.9.9,0,0,0,.38-.75.77.77,0,0,0-.31-.65,3.27,3.27,0,0,0-1.06-.46,2.59,2.59,0,0,1-1.13-.59,1.42,1.42,0,0,1,.18-2,2.09,2.09,0,0,1,1.35-.44,3.08,3.08,0,0,1,.68.08,2.27,2.27,0,0,1,.59.24v.56a2.38,2.38,0,0,0-1.26-.34,1.5,1.5,0,0,0-.94.27.79.79,0,0,0-.35.69.77.77,0,0,0,.26.63,2.74,2.74,0,0,0,1,.43,3,3,0,0,1,1.28.63,1.39,1.39,0,0,1,.37,1,1.36,1.36,0,0,1-.54,1.12A2.14,2.14,0,0,1,104,28.35Z"/><text class="cls-2" transform="translate(19.77 17.62)">tu<tspan class="cls-3" x="20.66" y="0">m</tspan><tspan class="cls-4" x="38.62" y="0">undo</tspan></text><path class="cls-1" d="M8.65,8.49A1.14,1.14,0,0,1,7.5,7.34h0A1.15,1.15,0,0,1,8.64,6.17h0A1.15,1.15,0,0,1,9.8,7.33h0A1.15,1.15,0,0,1,8.65,8.49Z"/><path class="cls-1" d="M11.09,17.54A7,7,0,0,0,17.33,12a7.39,7.39,0,0,0-4.39-7.7,9.35,9.35,0,0,0-9.32,1A9,9,0,0,0,1.74,17.87c1.7,2.33,4.74,3.31,7.53,3.24a10.56,10.56,0,0,0,6.36-2.19l-.26-.32c-2,1.59-6.18,2.3-8.89,1.37a7.66,7.66,0,0,1-4.9-5.83A8.44,8.44,0,0,1,2.94,7.27,7.17,7.17,0,0,1,12.22,5c3.61,1.83,5.1,6.84,2.49,10.13-1,1.22-3,2.33-4.45,1.26-.85-.62-.77-1.75-.77-2.69l.1-4.17V9.43H6.17v.74H7.6c0,1.46-.1,4.36-.1,4.44,0,1.26.4,3.21,3.59,2.93"/><path class="cls-1" d="M122.39,24a1.88,1.88,0,0,1,0-2.68l7.18-7.18-7.18-7.19a1.89,1.89,0,1,1,2.68-2.67l8.52,8.52a1.9,1.9,0,0,1,0,2.67L125.07,24a1.91,1.91,0,0,1-2.68,0Z"/></g></g></svg>